<svg width="0" height="0" class="hidden">
  <symbol fill="none" xmlns="http://www.w3.org/2000/svg" viewBox="0 0 16 16" id="visibility">
    <path d="M9.98411 9.98335C10.5286 9.4389 10.8008 8.77779 10.8008 8.00001C10.8008 7.22223 10.5286 6.56112 9.98411 6.01668C9.43967 5.47223 8.77856 5.20001 8.00078 5.20001C7.223 5.20001 6.56189 5.47223 6.01745 6.01668C5.473 6.56112 5.20078 7.22223 5.20078 8.00001C5.20078 8.77779 5.473 9.4389 6.01745 9.98335C6.56189 10.5278 7.223 10.8 8.00078 10.8C8.77856 10.8 9.43967 10.5278 9.98411 9.98335ZM6.86745 9.13335C6.55634 8.82223 6.40078 8.44446 6.40078 8.00001C6.40078 7.55557 6.55634 7.17779 6.86745 6.86668C7.17856 6.55557 7.55634 6.40001 8.00078 6.40001C8.44523 6.40001 8.823 6.55557 9.13411 6.86668C9.44523 7.17779 9.60078 7.55557 9.60078 8.00001C9.60078 8.44446 9.44523 8.82223 9.13411 9.13335C8.823 9.44446 8.44523 9.60001 8.00078 9.60001C7.55634 9.60001 7.17856 9.44446 6.86745 9.13335ZM3.66745 11.4917C2.36745 10.6195 1.41189 9.45557 0.800781 8.00001C1.41189 6.54446 2.36745 5.38057 3.66745 4.50835C4.96745 3.63612 6.41189 3.20001 8.00078 3.20001C9.58967 3.20001 11.0341 3.63612 12.3341 4.50835C13.6341 5.38057 14.5897 6.54446 15.2008 8.00001C14.5897 9.45557 13.6341 10.6195 12.3341 11.4917C11.0341 12.3639 9.58967 12.8 8.00078 12.8C6.41189 12.8 4.96745 12.3639 3.66745 11.4917ZM11.4508 10.6333C12.5063 9.9889 13.3174 9.11112 13.8841 8.00001C13.3174 6.8889 12.5063 6.01112 11.4508 5.36668C10.3952 4.72223 9.24522 4.40001 8.00078 4.40001C6.75634 4.40001 5.60634 4.72223 4.55078 5.36668C3.49523 6.01112 2.68411 6.8889 2.11745 8.00001C2.68411 9.11112 3.49523 9.9889 4.55078 10.6333C5.60634 11.2778 6.75634 11.6 8.00078 11.6C9.24522 11.6 10.3952 11.2778 11.4508 10.6333Z" fill="currentColor"></path>
  </symbol>
  <symbol fill="none" xmlns="http://www.w3.org/2000/svg" viewBox="0 0 16 16" id="print (1)">
    <path d="M11.0625 5.42857V3.28571H4.9375V5.42857H3.625V2H12.375V5.42857H11.0625ZM12.1524 8.42857C12.3373 8.42857 12.4935 8.36732 12.6211 8.24482C12.7487 8.12232 12.8125 7.97054 12.8125 7.78946C12.8125 7.60839 12.75 7.45536 12.6249 7.33036C12.4999 7.20536 12.3449 7.14286 12.1601 7.14286C11.9752 7.14286 11.819 7.20411 11.6914 7.32661C11.5638 7.44911 11.5 7.60089 11.5 7.78196C11.5 7.96304 11.5625 8.11607 11.6876 8.24107C11.8126 8.36607 11.9676 8.42857 12.1524 8.42857ZM11.0625 12.7143V10.1429H4.9375V12.7143H11.0625ZM12.375 14H3.625V11.4286H1V7.14286C1 6.66667 1.17014 6.2619 1.51042 5.92857C1.85069 5.59524 2.26389 5.42857 2.75 5.42857H13.25C13.7361 5.42857 14.1493 5.59524 14.4896 5.92857C14.8299 6.2619 15 6.66667 15 7.14286V11.4286H12.375V14ZM13.7057 10.1429V7.39875C13.7057 7.20435 13.6328 7.04167 13.487 6.91071C13.3411 6.77976 13.171 6.71429 12.9766 6.71429H3.00521C2.80894 6.71429 2.64445 6.78 2.51174 6.91143C2.37891 7.04286 2.3125 7.20571 2.3125 7.4V10.1429H3.625V8.85714H12.375V10.1429H13.7057Z" fill="currentColor"></path>
  </symbol>
  <symbol fill="none" xmlns="http://www.w3.org/2000/svg" viewBox="0 0 16 16" id="print">
    <path d="M11.0625 5.42857V3.28571H4.9375V5.42857H3.625V2H12.375V5.42857H11.0625ZM12.1524 8.42857C12.3373 8.42857 12.4935 8.36732 12.6211 8.24482C12.7487 8.12232 12.8125 7.97054 12.8125 7.78946C12.8125 7.60839 12.75 7.45536 12.6249 7.33036C12.4999 7.20536 12.3449 7.14286 12.1601 7.14286C11.9752 7.14286 11.819 7.20411 11.6914 7.32661C11.5638 7.44911 11.5 7.60089 11.5 7.78196C11.5 7.96304 11.5625 8.11607 11.6876 8.24107C11.8126 8.36607 11.9676 8.42857 12.1524 8.42857ZM11.0625 12.7143V10.1429H4.9375V12.7143H11.0625ZM12.375 14H3.625V11.4286H1V7.14286C1 6.66667 1.17014 6.2619 1.51042 5.92857C1.85069 5.59524 2.26389 5.42857 2.75 5.42857H13.25C13.7361 5.42857 14.1493 5.59524 14.4896 5.92857C14.8299 6.2619 15 6.66667 15 7.14286V11.4286H12.375V14ZM13.7057 10.1429V7.39875C13.7057 7.20435 13.6328 7.04167 13.487 6.91071C13.3411 6.77976 13.171 6.71429 12.9766 6.71429H3.00521C2.80894 6.71429 2.64445 6.78 2.51174 6.91143C2.37891 7.04286 2.3125 7.20571 2.3125 7.4V10.1429H3.625V8.85714H12.375V10.1429H13.7057Z" fill="currentColor"></path>
  </symbol>
  <symbol fill="none" xmlns="http://www.w3.org/2000/svg" viewBox="0 0 16 16" id="menu">
    <circle cx="8.5" cy="3.5" r="1.5" fill="currentColor"></circle>
    <circle cx="8.5" cy="8.5" r="1.5" fill="currentColor"></circle>
    <circle cx="8.5" cy="13.5" r="1.5" fill="currentColor"></circle>
  </symbol>
  <symbol fill="none" xmlns="http://www.w3.org/2000/svg" viewBox="0 0 16 16" id="search">
    <mask id="mask0_2612_5898" maskUnits="userSpaceOnUse" x="0" y="0" width="16" height="16">
      <rect width="16" height="16" fill="#D9D9D9"></rect>
    </mask>
    <g mask="url(#mask0_2612_5898)">
      <path d="M12.7504 13.6L8.76706 9.61669C8.43372 9.86114 8.06822 10.0528 7.67056 10.1917C7.27289 10.3306 6.84967 10.4 6.40089 10.4C5.28945 10.4 4.34484 10.0111 3.56706 9.23336C2.78928 8.45558 2.40039 7.51114 2.40039 6.40002C2.40039 5.28891 2.78928 4.34447 3.56706 3.56669C4.34484 2.78891 5.28928 2.40002 6.40039 2.40002C7.5115 2.40002 8.45595 2.78891 9.23372 3.56669C10.0115 4.34447 10.4004 5.28908 10.4004 6.40053C10.4004 6.8493 10.3309 7.27252 10.1921 7.67019C10.0532 8.06786 9.8615 8.43336 9.61706 8.76669L13.6004 12.75L12.7504 13.6ZM6.40039 9.20002C7.17817 9.20002 7.83928 8.9278 8.38372 8.38336C8.92817 7.83891 9.20039 7.1778 9.20039 6.40002C9.20039 5.62225 8.92817 4.96114 8.38372 4.41669C7.83928 3.87225 7.17817 3.60002 6.40039 3.60002C5.62261 3.60002 4.9615 3.87225 4.41706 4.41669C3.87261 4.96114 3.60039 5.62225 3.60039 6.40002C3.60039 7.1778 3.87261 7.83891 4.41706 8.38336C4.9615 8.9278 5.62261 9.20002 6.40039 9.20002Z" fill="currentColor"></path>
    </g>
  </symbol>
  <symbol fill="none" xmlns="http://www.w3.org/2000/svg" viewBox="0 0 16 16" id="favorite">
    <path d="M8 15L7.08854 14.1595C5.87326 13.0512 4.87066 12.1018 4.08073 11.3111C3.2908 10.5204 2.66797 9.81681 2.21224 9.20043C1.75651 8.58405 1.44054 8.02059 1.26432 7.51006C1.08811 6.99952 1 6.47653 1 5.94109C1 4.83285 1.37066 3.89895 2.11198 3.13937C2.8533 2.37979 3.76476 2 4.84635 2C5.44184 2 6.0191 2.13075 6.57812 2.39224C7.13715 2.65374 7.61111 3.02107 8 3.49425C8.38889 3.02107 8.86285 2.65374 9.42188 2.39224C9.9809 2.13075 10.5582 2 11.1536 2C12.2352 2 13.1467 2.37979 13.888 3.13937C14.6293 3.89895 15 4.83285 15 5.94109C15 6.47653 14.9149 6.99329 14.7448 7.49138C14.5747 7.98946 14.2617 8.54358 13.806 9.15374C13.3503 9.76389 12.7244 10.4705 11.9284 11.2737C11.1324 12.0769 10.1146 13.0512 8.875 14.1968L8 15ZM8 13.1882C9.13021 12.1547 10.0599 11.2737 10.7891 10.5453C11.5182 9.81681 12.0985 9.18175 12.5299 8.64009C12.9614 8.09842 13.2622 7.6159 13.4323 7.19253C13.6024 6.76916 13.6875 6.35201 13.6875 5.94109C13.6875 5.20642 13.4444 4.59004 12.9583 4.09195C12.4722 3.59387 11.8707 3.34483 11.1536 3.34483C10.7283 3.34483 10.3303 3.43511 9.95964 3.61566C9.58898 3.79622 9.26997 4.04837 9.0026 4.37213L8.36458 5.13793H7.63542L6.9974 4.37213C6.73003 4.04837 6.40495 3.79622 6.02214 3.61566C5.63932 3.43511 5.2474 3.34483 4.84635 3.34483C4.12934 3.34483 3.52778 3.59387 3.04167 4.09195C2.55556 4.59004 2.3125 5.20642 2.3125 5.94109C2.3125 6.35201 2.39149 6.75982 2.54948 7.16451C2.70747 7.56921 2.99609 8.03927 3.41536 8.57471C3.83464 9.11015 4.41189 9.74521 5.14714 10.4799C5.88238 11.2146 6.83333 12.1173 8 13.1882Z" fill="currentColor"></path>
  </symbol>
  <symbol fill="none" xmlns="http://www.w3.org/2000/svg" viewBox="0 0 16 16" id="officialDealer">
    <path d="M7.28862 13.6035C6.4608 13.9583 5.49408 13.6422 5.02796 12.8715C4.77468 12.4528 4.35705 12.1511 3.87979 12.0428C3.00448 11.8441 2.40568 11.0213 2.48638 10.1274C2.53036 9.64023 2.37124 9.15376 2.04629 8.78818C1.44959 8.1169 1.44959 7.10532 2.04629 6.43404C2.37124 6.06846 2.53036 5.58199 2.48638 5.09485C2.40568 4.20092 3.00448 3.37809 3.87979 3.17944C4.35705 3.07112 4.77468 2.76944 5.02796 2.35068C5.49408 1.58004 6.4608 1.26395 7.28862 1.61873C7.74289 1.81342 8.25711 1.81342 8.71138 1.61873C9.5392 1.26395 10.5059 1.58004 10.972 2.35068C11.2253 2.76944 11.643 3.07112 12.1202 3.17944C12.9955 3.37809 13.5943 4.20092 13.5136 5.09485C13.4696 5.58199 13.6288 6.06846 13.9537 6.43404C14.5504 7.10532 14.5504 8.1169 13.9537 8.78818C13.6288 9.15376 13.4696 9.64023 13.5136 10.1274C13.5943 11.0213 12.9955 11.8441 12.1202 12.0428C11.643 12.1511 11.2253 12.4528 10.972 12.8715C10.5059 13.6422 9.5392 13.9583 8.71138 13.6035C8.25711 13.4088 7.74289 13.4088 7.28862 13.6035ZM7.17361 9.94444L11.0301 6.10417L10.2037 5.27778L7.17361 8.29167L5.7963 6.93056L4.96991 7.75694L7.17361 9.94444Z" fill="currentColor"></path>
    <path d="M11.0328 6.10419L7.17636 9.94447L4.97266 7.75697L5.79905 6.93058L7.17636 8.29169L10.2065 5.2778L11.0328 6.10419Z" fill="white"></path>
  </symbol>
  <symbol fill="none" xmlns="http://www.w3.org/2000/svg" viewBox="0 0 16 16" id="premium">
    <path d="M3.1875 14V12.7143H12.8125V14H3.1875ZM3.1875 11.8571L2.27604 6.69643C2.25174 6.70833 2.22439 6.71429 2.19401 6.71429H2.09375C1.78993 6.71429 1.53168 6.61012 1.31901 6.40179C1.10634 6.19345 1 5.94048 1 5.64286C1 5.34524 1.10634 5.09226 1.31901 4.88393C1.53168 4.6756 1.78993 4.57143 2.09375 4.57143C2.39757 4.57143 2.65582 4.6756 2.86849 4.88393C3.08116 5.09226 3.1875 5.34524 3.1875 5.64286C3.1875 5.72619 3.17839 5.80357 3.16016 5.875C3.14193 5.94643 3.11458 6.01786 3.07812 6.08929L5.375 7.14286L7.41667 3.98214C7.25868 3.8869 7.13411 3.75815 7.04297 3.59589C6.95182 3.43351 6.90625 3.25869 6.90625 3.07143C6.90625 2.77381 7.01259 2.52083 7.22526 2.3125C7.43793 2.10417 7.69618 2 8 2C8.30382 2 8.56207 2.10417 8.77474 2.3125C8.98741 2.52083 9.09375 2.77381 9.09375 3.07143C9.09375 3.2619 9.04818 3.4375 8.95703 3.59821C8.86589 3.75893 8.74132 3.8869 8.58333 3.98214L10.625 7.14286L12.9219 6.08929C12.8854 6.01786 12.8581 5.94643 12.8398 5.875C12.8216 5.80357 12.8125 5.72619 12.8125 5.64286C12.8125 5.34524 12.9188 5.09226 13.1315 4.88393C13.3442 4.6756 13.6024 4.57143 13.9062 4.57143C14.2101 4.57143 14.4683 4.6756 14.681 4.88393C14.8937 5.09226 15 5.34524 15 5.64286C15 5.94048 14.8937 6.19345 14.681 6.40179C14.4683 6.61012 14.2101 6.71429 13.9062 6.71429H13.806C13.7756 6.71429 13.7483 6.70833 13.724 6.69643L12.8125 11.8571H3.1875Z" fill="currentColor"></path>
  </symbol>
  <symbol fill="none" xmlns="http://www.w3.org/2000/svg" viewBox="0 0 16 16" id="reportSpam">
    <path d="M8 11.75C8.20833 11.75 8.38542 11.6771 8.53125 11.5312C8.67708 11.3854 8.75 11.2083 8.75 11C8.75 10.7917 8.67708 10.6146 8.53125 10.4688C8.38542 10.3229 8.20833 10.25 8 10.25C7.79167 10.25 7.61458 10.3229 7.46875 10.4688C7.32292 10.6146 7.25 10.7917 7.25 11C7.25 11.2083 7.32292 11.3854 7.46875 11.5312C7.61458 11.6771 7.79167 11.75 8 11.75ZM7.25 9H8.75V4H7.25V9ZM5.10417 15L1 10.875V5.10417L5.10417 1H10.8958L15 5.10417V10.8958L10.875 15H5.10417ZM5.72917 13.5H10.2708L13.5 10.2708V5.72917L10.25 2.5H5.72917L2.5 5.72917V10.2708L5.72917 13.5Z" fill="currentColor"></path>
  </symbol>
  <symbol fill="none" xmlns="http://www.w3.org/2000/svg" viewBox="0 0 16 16" id="sendMessage">
    <path d="M2.3125 14C1.95156 14 1.64258 13.8653 1.38555 13.5959C1.12852 13.3265 1 13.0026 1 12.6242V4.36965C1 3.99127 1.12852 3.6684 1.38555 3.40104C1.64258 3.13368 1.95156 3 2.3125 3H13.6875C14.0484 3 14.3574 3.1347 14.6145 3.4041C14.8715 3.67349 15 3.99738 15 4.37576V12.6303C15 13.0087 14.8715 13.3316 14.6145 13.599C14.3574 13.8663 14.0484 14 13.6875 14H2.3125ZM8 9.41667L2.3125 5.99826V12.625H13.6875V5.99826L8 9.41667ZM8 7.7934L13.6875 4.375H2.3125L8 7.7934ZM2.3125 5.99826V4.375V12.625V5.99826Z" fill="currentColor"></path>
  </symbol>
  <symbol fill="none" xmlns="http://www.w3.org/2000/svg" viewBox="0 0 16 16" id="addBookmarkAlt">
    <path d="M3 15V2.5C3 2.08333 3.14583 1.72917 3.4375 1.4375C3.72917 1.14583 4.08333 1 4.5 1H11.5C11.9167 1 12.2708 1.14583 12.5625 1.4375C12.8542 1.72917 13 2.08333 13 2.5V15L8 13L3 15Z" fill="currentColor"></path>
  </symbol>
  <symbol fill="none" xmlns="http://www.w3.org/2000/svg" viewBox="0 0 16 16" id="addBookmark">
    <path d="M2 15.25V2.75C2 2.33181 2.14583 1.97375 2.4375 1.67583C2.72917 1.37806 3.08333 1.23611 3.5 1.25H8V2.75H3.5V13.0208L7 11.625L10.5 13.0208V7.25H12V15.25L7 13.25L2 15.25ZM11.25 5.5V4H9.75V2.5H11.25V1H12.75V2.5H14.25V4H12.75V5.5H11.25Z" fill="currentColor"></path>
  </symbol>
  <symbol fill="none" xmlns="http://www.w3.org/2000/svg" viewBox="0 0 16 16" id="parameters">
    <path d="M2.5 14V9H1V7.5H5.52083V9H4V14H2.5ZM2.5 6V2H4V6H2.5ZM5.75 6V4.5H7.25V2H8.75V4.5H10.25V6H5.75ZM7.25 14V7.5H8.75V14H7.25ZM12 14V11.5H10.4792V10H15V11.5H13.5V14H12ZM12 8.5V2H13.5V8.5H12Z" fill="currentColor"></path>
  </symbol>
  <symbol fill="none" xmlns="http://www.w3.org/2000/svg" viewBox="0 0 16 16" id="clearAlt">
    <path d="M4.0625 13L3 11.9375L6.9375 8L3 4.0625L4.0625 3L8 6.9375L11.9375 3L13 4.0625L9.0625 8L13 11.9375L11.9375 13L8 9.0625L4.0625 13Z" fill="currentColor"></path>
  </symbol>
  <symbol fill="none" xmlns="http://www.w3.org/2000/svg" viewBox="0 0 16 16" id="clearField">
    <circle cx="8" cy="8" r="7" fill="#E0E5EB"></circle>
    <path d="M4.85 12L4 11.15L7.15 8L4 4.85L4.85 4L8 7.15L11.15 4L12 4.85L8.85 8L12 11.15L11.15 12L8 8.85L4.85 12Z" fill="currentColor"></path>
  </symbol>
  <symbol fill="none" xmlns="http://www.w3.org/2000/svg" viewBox="0 0 16 16" id="chevronRight">
    <path d="M11 8L6.26699 13L5 11.6615L8.46602 8L5 4.33846L6.26699 3L11 8Z" fill="currentColor"></path>
  </symbol>
  <symbol fill="none" xmlns="http://www.w3.org/2000/svg" viewBox="0 0 16 16" id="chevronDown">
    <path d="M8 12L3 7.26699L4.33846 6L8 9.46602L11.6615 6L13 7.26699L8 12Z" fill="currentColor"></path>
  </symbol>
  <symbol fill="none" xmlns="http://www.w3.org/2000/svg" viewBox="0 0 16 16" id="saveSearch">
    <mask id="mask0_2424_2100" maskUnits="userSpaceOnUse" x="0" y="0" width="16" height="16">
      <rect width="16" height="16" fill="#D9D9D9"></rect>
    </mask>
    <g mask="url(#mask0_2424_2100)">
      <path d="M13.9375 15L8.95833 10C8.54167 10.3194 8.08479 10.566 7.58771 10.7396C7.09063 10.9132 6.5616 11 6.00063 11C4.61132 11 3.43056 10.5139 2.45833 9.54167C1.48611 8.56944 1 7.38889 1 6C1 4.61111 1.48611 3.43056 2.45833 2.45833C3.43056 1.48611 4.61111 1 6 1C7.38889 1 8.56944 1.48611 9.54167 2.45833C10.5139 3.43056 11 4.61132 11 6.00063C11 6.5616 10.9132 7.09063 10.7396 7.58771C10.566 8.08479 10.3264 8.54167 10.0208 8.95833L15 13.9375L13.9375 15ZM6 9.5C6.97222 9.5 7.79861 9.15972 8.47917 8.47917C9.15972 7.79861 9.5 6.97222 9.5 6C9.5 5.02778 9.15972 4.20139 8.47917 3.52083C7.79861 2.84028 6.97222 2.5 6 2.5C5.02778 2.5 4.20139 2.84028 3.52083 3.52083C2.84028 4.20139 2.5 5.02778 2.5 6C2.5 6.97222 2.84028 7.79861 3.52083 8.47917C4.20139 9.15972 5.02778 9.5 6 9.5ZM5.25 8.25V6.75H3.75V5.25H5.25V3.75H6.75V5.25H8.25V6.75H6.75V8.25H5.25Z" fill="currentColor"></path>
    </g>
  </symbol>
  <symbol fill="none" xmlns="http://www.w3.org/2000/svg" viewBox="0 0 16 16" id="deleteAlt">
    <mask id="mask0_2424_2146" maskUnits="userSpaceOnUse" x="0" y="0" width="16" height="16">
      <rect width="16" height="16" fill="#D9D9D9"></rect>
    </mask>
    <g mask="url(#mask0_2424_2146)">
      <path d="M4.5 15C4.0875 15 3.73438 14.8531 3.44062 14.5594C3.14687 14.2656 3 13.9125 3 13.5V3.5H2V2H6V1H10V2H14V3.5H13V13.491C13 13.9137 12.8531 14.2708 12.5594 14.5625C12.2656 14.8542 11.9125 15 11.5 15H4.5ZM11.5 3.5H4.5V13.5H11.5V3.5ZM6 12H7.5V5H6V12ZM8.5 12H10V5H8.5V12Z" fill="currentColor"></path>
    </g>
  </symbol>
  <symbol fill="none" xmlns="http://www.w3.org/2000/svg" viewBox="0 0 16 16" id="delete">
    <mask id="mask0_2424_2087" maskUnits="userSpaceOnUse" x="0" y="0" width="16" height="16">
      <rect width="16" height="16" fill="#D9D9D9"></rect>
    </mask>
    <g mask="url(#mask0_2424_2087)">
      <path d="M4.5 15C4.0875 15 3.73438 14.8531 3.44062 14.5594C3.14687 14.2656 3 13.9125 3 13.5V3.5H2V2H6V1H10V2H14V3.5H13V13.491C13 13.9137 12.8531 14.2708 12.5594 14.5625C12.2656 14.8542 11.9125 15 11.5 15H4.5ZM6 12H7.5V5H6V12ZM8.5 12H10V5H8.5V12Z" fill="currentColor"></path>
    </g>
  </symbol>
</svg>