<svg width="0" height="0" class="hidden">
  <symbol fill="none" xmlns="http://www.w3.org/2000/svg" viewBox="0 0 20 20" id="reportSpam">
    <path d="M10 14.8214C10.2679 14.8214 10.4955 14.7277 10.683 14.5402C10.8705 14.3527 10.9643 14.125 10.9643 13.8571C10.9643 13.5893 10.8705 13.3616 10.683 13.1741C10.4955 12.9866 10.2679 12.8929 10 12.8929C9.73214 12.8929 9.50446 12.9866 9.31696 13.1741C9.12946 13.3616 9.03571 13.5893 9.03571 13.8571C9.03571 14.125 9.12946 14.3527 9.31696 14.5402C9.50446 14.7277 9.73214 14.8214 10 14.8214ZM9.03571 11.2857H10.9643V4.85714H9.03571V11.2857ZM6.27679 19L1 13.6964V6.27679L6.27679 1H13.7232L19 6.27679V13.7232L13.6964 19H6.27679ZM7.08036 17.0714H12.9196L17.0714 12.9196V7.08036L12.8929 2.92857H7.08036L2.92857 7.08036V12.9196L7.08036 17.0714Z" fill="#3B4C5E"></path>
  </symbol>
  <symbol fill="none" xmlns="http://www.w3.org/2000/svg" viewBox="0 0 20 20" id="favorite">
    <path d="M10 19L8.82812 17.9009C7.26562 16.4516 5.97656 15.21 4.96094 14.176C3.94531 13.142 3.14453 12.222 2.55859 11.4159C1.97266 10.6099 1.56641 9.87308 1.33984 9.20546C1.11328 8.53784 1 7.85393 1 7.15374C1 5.7045 1.47656 4.48324 2.42969 3.48994C3.38281 2.49665 4.55469 2 5.94531 2C6.71094 2 7.45312 2.17098 8.17188 2.51293C8.89062 2.85489 9.5 3.33525 10 3.95402C10.5 3.33525 11.1094 2.85489 11.8281 2.51293C12.5469 2.17098 13.2891 2 14.0547 2C15.4453 2 16.6172 2.49665 17.5703 3.48994C18.5234 4.48324 19 5.7045 19 7.15374C19 7.85393 18.8906 8.52969 18.6719 9.18103C18.4531 9.83238 18.0508 10.557 17.4648 11.3549C16.8789 12.1528 16.0742 13.0769 15.0508 14.1272C14.0273 15.1774 12.7188 16.4516 11.125 17.9497L10 19ZM10 16.6307C11.4531 15.2792 12.6484 14.1272 13.5859 13.1746C14.5234 12.222 15.2695 11.3915 15.8242 10.6832C16.3789 9.97486 16.7656 9.34387 16.9844 8.79023C17.2031 8.23659 17.3125 7.69109 17.3125 7.15374C17.3125 6.19301 17 5.38697 16.375 4.73563C15.75 4.08429 14.9766 3.75862 14.0547 3.75862C13.5078 3.75862 12.9961 3.87668 12.5195 4.11279C12.043 4.3489 11.6328 4.67864 11.2891 5.10201L10.4688 6.10345H9.53125L8.71094 5.10201C8.36719 4.67864 7.94922 4.3489 7.45703 4.11279C6.96484 3.87668 6.46094 3.75862 5.94531 3.75862C5.02344 3.75862 4.25 4.08429 3.625 4.73563C3 5.38697 2.6875 6.19301 2.6875 7.15374C2.6875 7.69109 2.78906 8.22438 2.99219 8.75359C3.19531 9.28281 3.56641 9.89751 4.10547 10.5977C4.64453 11.2979 5.38672 12.1284 6.33203 13.0891C7.27734 14.0498 8.5 15.2304 10 16.6307Z" fill="#3B4C5E"></path>
  </symbol>
</svg>