<svg width="24" height="24" viewBox="0 0 24 24" fill="none" xmlns="http://www.w3.org/2000/svg">
<mask id="mask0_3285_22305" style="mask-type:alpha" maskUnits="userSpaceOnUse" x="0" y="0" width="24" height="24">
<rect width="24" height="24" fill="#D9D9D9"/>
</mask>
<g mask="url(#mask0_3285_22305)">
<path d="M4.22669 19.5156C3.46385 19.5156 2.81735 19.2481 2.28719 18.7129C1.75719 18.1776 1.49219 17.5286 1.49219 16.7659V11.0734C1.49219 10.5747 1.66877 10.1488 2.02194 9.79564C2.3751 9.44247 2.80102 9.26589 3.29969 9.26589H8.40569V4.27539H12.9344C13.6973 4.27539 14.3463 4.54306 14.8814 5.07839C15.4168 5.61356 15.6844 6.26256 15.6844 7.02539V11.1119H16.8229V9.85039C16.8229 9.61572 16.869 9.38947 16.9612 9.17164C17.0535 8.95364 17.1818 8.76256 17.3459 8.59839L19.0209 6.93889L23.1497 14.7659H18.5727C18.0934 14.7659 17.6834 14.5956 17.3429 14.2551C17.0026 13.9148 16.8293 13.5017 16.8229 13.0159V12.6119H15.6689V14.6024C16.0151 14.8601 16.2821 15.1767 16.4699 15.5524C16.6578 15.9281 16.7517 16.3326 16.7517 16.7659C16.7517 17.5286 16.484 18.1776 15.9487 18.7129C15.4135 19.2481 14.7645 19.5156 14.0017 19.5156C13.3875 19.5156 12.8365 19.3323 12.3487 18.9656C11.861 18.599 11.5294 18.1189 11.3537 17.5254H6.87469C6.69919 18.1189 6.36752 18.599 5.87969 18.9656C5.39185 19.3323 4.84085 19.5156 4.22669 19.5156ZM4.22669 18.0159C4.57419 18.0159 4.87194 17.8944 5.11994 17.6514C5.3681 17.4084 5.49219 17.1132 5.49219 16.7659C5.49219 16.4184 5.37069 16.1231 5.12769 15.8801C4.88469 15.6371 4.58952 15.5156 4.24219 15.5156C3.89469 15.5156 3.59944 15.6371 3.35644 15.8801C3.1136 16.1231 2.99219 16.4184 2.99219 16.7659C2.99219 17.1132 3.11102 17.4084 3.34869 17.6514C3.58652 17.8944 3.87919 18.0159 4.22669 18.0159ZM14.8872 17.6514C15.1302 17.4084 15.2517 17.1132 15.2517 16.7659C15.2517 16.4184 15.1302 16.1231 14.8872 15.8801C14.6444 15.6371 14.3492 15.5156 14.0017 15.5156C13.6542 15.5156 13.359 15.6371 13.1162 15.8801C12.8732 16.1231 12.7517 16.4184 12.7517 16.7659C12.7517 17.1132 12.8732 17.4084 13.1162 17.6514C13.359 17.8944 13.6542 18.0159 14.0017 18.0159C14.3492 18.0159 14.6444 17.8944 14.8872 17.6514ZM8.40569 16.0159V10.7659H3.29969C3.21002 10.7659 3.13635 10.7947 3.07869 10.8524C3.02102 10.9101 2.99219 10.9837 2.99219 11.0734V14.3926C3.17802 14.262 3.3741 14.1665 3.58044 14.1061C3.78694 14.046 4.00752 14.0159 4.24219 14.0159C4.85619 14.0159 5.40552 14.2008 5.89019 14.5706C6.37485 14.9405 6.69985 15.4222 6.86519 16.0159H8.40569ZM9.90544 16.0159H11.3537C11.519 15.4222 11.8482 14.9405 12.3412 14.5706C12.834 14.2008 13.3875 14.0159 14.0017 14.0159C14.0337 14.0159 14.0641 14.0175 14.0929 14.0206C14.1219 14.0238 14.1524 14.0286 14.1844 14.0351V12.6119H9.90544V16.0159ZM20.6767 13.2659L18.6459 9.42739L18.4152 9.66764C18.3895 9.69331 18.3703 9.72214 18.3574 9.75414C18.3446 9.78631 18.3382 9.81839 18.3382 9.85039V13.0159C18.3445 13.0864 18.3702 13.1456 18.4152 13.1936C18.46 13.2418 18.5177 13.2659 18.5882 13.2659H20.6767ZM9.90544 11.1119H14.1844V7.02539C14.1844 6.67789 14.0629 6.38272 13.8199 6.13989C13.5769 5.89689 13.2818 5.77539 12.9344 5.77539H9.90544V11.1119ZM8.40569 16.0159V14.0159V14.3926V10.7659V16.0159ZM9.90544 16.0159V12.6119V14.0351V14.0159V16.0159Z" fill="#4E657E"/>
</g>
</svg>
