<svg width="24" height="24" viewBox="0 0 24 24" fill="none" xmlns="http://www.w3.org/2000/svg">
<path d="M18.9231 14C17.776 14 16.8462 13.1046 16.8462 12C16.8462 10.8954 17.776 10 18.9231 10C20.0701 10 21 10.8954 21 12C21 13.1046 20.0701 14 18.9231 14Z" fill="currentColor"/>
<path d="M12 14C10.8529 14 9.92308 13.1046 9.92308 12C9.92308 10.8954 10.8529 10 12 10C13.1471 10 14.0769 10.8954 14.0769 12C14.0769 13.1046 13.1471 14 12 14Z" fill="currentColor"/>
<path d="M5.07692 14C3.92987 14 3 13.1046 3 12C3 10.8954 3.92987 10 5.07692 10C6.22398 10 7.15385 10.8954 7.15385 12C7.15385 13.1046 6.22398 14 5.07692 14Z" fill="currentColor"/>
</svg>
