<svg width="16" height="16" viewBox="0 0 16 16" fill="none" xmlns="http://www.w3.org/2000/svg">
<path d="M9.98021 9.98255C10.5247 9.43811 10.7969 8.777 10.7969 7.99922C10.7969 7.22144 10.5247 6.56033 9.98021 6.01589C9.43576 5.47144 8.77465 5.19922 7.99687 5.19922C7.2191 5.19922 6.55799 5.47144 6.01354 6.01589C5.4691 6.56033 5.19687 7.22144 5.19687 7.99922C5.19687 8.777 5.4691 9.43811 6.01354 9.98255C6.55799 10.527 7.2191 10.7992 7.99687 10.7992C8.77465 10.7992 9.43576 10.527 9.98021 9.98255ZM6.86354 9.13255C6.55243 8.82144 6.39687 8.44366 6.39687 7.99922C6.39687 7.55477 6.55243 7.177 6.86354 6.86589C7.17465 6.55477 7.55243 6.39922 7.99687 6.39922C8.44132 6.39922 8.8191 6.55477 9.13021 6.86589C9.44132 7.177 9.59687 7.55477 9.59687 7.99922C9.59687 8.44366 9.44132 8.82144 9.13021 9.13255C8.8191 9.44366 8.44132 9.59922 7.99687 9.59922C7.55243 9.59922 7.17465 9.44366 6.86354 9.13255ZM3.66354 11.4909C2.36354 10.6187 1.40799 9.45477 0.796875 7.99922C1.40799 6.54366 2.36354 5.37977 3.66354 4.50755C4.96354 3.63533 6.40799 3.19922 7.99687 3.19922C9.58576 3.19922 11.0302 3.63533 12.3302 4.50755C13.6302 5.37977 14.5858 6.54366 15.1969 7.99922C14.5858 9.45477 13.6302 10.6187 12.3302 11.4909C11.0302 12.3631 9.58576 12.7992 7.99687 12.7992C6.40799 12.7992 4.96354 12.3631 3.66354 11.4909ZM11.4469 10.6326C12.5024 9.98811 13.3135 9.11033 13.8802 7.99922C13.3135 6.88811 12.5024 6.01033 11.4469 5.36589C10.3913 4.72144 9.24132 4.39922 7.99687 4.39922C6.75243 4.39922 5.60243 4.72144 4.54687 5.36589C3.49132 6.01033 2.68021 6.88811 2.11354 7.99922C2.68021 9.11033 3.49132 9.98811 4.54687 10.6326C5.60243 11.277 6.75243 11.5992 7.99687 11.5992C9.24132 11.5992 10.3913 11.277 11.4469 10.6326Z" fill="#8198B1"/>
</svg>
