<svg width="20" height="20" viewBox="0 0 20 20" fill="none" xmlns="http://www.w3.org/2000/svg">
<rect width="20" height="20" rx="10" fill="#14191F"/>
<path d="M5.1875 16V14.7143H14.8125V16H5.1875ZM5.1875 13.8571L4.27604 8.69643C4.25174 8.70833 4.22439 8.71429 4.19401 8.71429H4.09375C3.78993 8.71429 3.53168 8.61012 3.31901 8.40179C3.10634 8.19345 3 7.94048 3 7.64286C3 7.34524 3.10634 7.09226 3.31901 6.88393C3.53168 6.6756 3.78993 6.57143 4.09375 6.57143C4.39757 6.57143 4.65582 6.6756 4.86849 6.88393C5.08116 7.09226 5.1875 7.34524 5.1875 7.64286C5.1875 7.72619 5.17839 7.80357 5.16016 7.875C5.14193 7.94643 5.11458 8.01786 5.07812 8.08929L7.375 9.14286L9.41667 5.98214C9.25868 5.8869 9.13411 5.75815 9.04297 5.59589C8.95182 5.43351 8.90625 5.25869 8.90625 5.07143C8.90625 4.77381 9.01259 4.52083 9.22526 4.3125C9.43793 4.10417 9.69618 4 10 4C10.3038 4 10.5621 4.10417 10.7747 4.3125C10.9874 4.52083 11.0938 4.77381 11.0938 5.07143C11.0938 5.2619 11.0482 5.4375 10.957 5.59821C10.8659 5.75893 10.7413 5.8869 10.5833 5.98214L12.625 9.14286L14.9219 8.08929C14.8854 8.01786 14.8581 7.94643 14.8398 7.875C14.8216 7.80357 14.8125 7.72619 14.8125 7.64286C14.8125 7.34524 14.9188 7.09226 15.1315 6.88393C15.3442 6.6756 15.6024 6.57143 15.9062 6.57143C16.2101 6.57143 16.4683 6.6756 16.681 6.88393C16.8937 7.09226 17 7.34524 17 7.64286C17 7.94048 16.8937 8.19345 16.681 8.40179C16.4683 8.61012 16.2101 8.71429 15.9062 8.71429H15.806C15.7756 8.71429 15.7483 8.70833 15.724 8.69643L14.8125 13.8571H5.1875Z" fill="#F8CF55"/>
</svg>
