<svg width="24" height="24" viewBox="0 0 24 24" fill="none" xmlns="http://www.w3.org/2000/svg">
<mask id="mask0_3285_22325" style="mask-type:alpha" maskUnits="userSpaceOnUse" x="0" y="0" width="24" height="24">
<rect width="24" height="24" fill="#D9D9D9"/>
</mask>
<g mask="url(#mask0_3285_22325)">
<path d="M22.5 13.4615H17.925C17.875 13.1948 17.807 12.9381 17.721 12.6912C17.6352 12.4446 17.5282 12.2013 17.4 11.9615H20.9538C20.9064 11.7615 20.8331 11.5958 20.7337 11.4645C20.6342 11.333 20.4942 11.2211 20.3135 11.1288C19.8417 10.8659 19.3218 10.673 18.7538 10.55C18.1859 10.4268 17.5597 10.3652 16.875 10.3652C16.7558 10.3652 16.6392 10.3701 16.525 10.3798C16.4108 10.3894 16.2942 10.4071 16.175 10.4328C15.9202 10.1581 15.643 9.91917 15.3435 9.716C15.044 9.513 14.7186 9.33717 14.3673 9.1885C14.7634 9.086 15.1698 9.0065 15.5865 8.95C16.0033 8.89367 16.4328 8.8655 16.875 8.8655C17.6813 8.8655 18.4454 8.95075 19.1672 9.12125C19.8891 9.29175 20.5673 9.54233 21.202 9.873C21.6288 10.1 21.9518 10.4138 22.171 10.8145C22.3903 11.215 22.5 11.6877 22.5 12.2327V13.4615ZM16.8755 7.923C16.1252 7.923 15.4872 7.65942 14.9615 7.13225C14.4358 6.60492 14.173 5.96467 14.173 5.2115C14.173 4.45833 14.4357 3.81817 14.961 3.291C15.4862 2.76367 16.124 2.5 16.8745 2.5C17.6248 2.5 18.2628 2.76367 18.7885 3.291C19.3142 3.81817 19.577 4.45833 19.577 5.2115C19.577 5.96467 19.3143 6.60492 18.789 7.13225C18.2637 7.65942 17.6258 7.923 16.8755 7.923ZM16.8755 6.423C17.2162 6.423 17.5016 6.30717 17.7318 6.0755C17.9619 5.84367 18.077 5.5565 18.077 5.214C18.077 4.87133 17.9618 4.58333 17.7313 4.35C17.5008 4.11667 17.2152 4 16.8745 4C16.5338 4 16.2484 4.11592 16.0182 4.34775C15.7881 4.57942 15.673 4.86658 15.673 5.20925C15.673 5.55175 15.7882 5.83967 16.0188 6.073C16.2493 6.30633 16.5348 6.423 16.8755 6.423ZM1.5 13.4615V12.2327C1.5 11.6877 1.60967 11.215 1.829 10.8145C2.04817 10.4138 2.37117 10.1 2.798 9.873C3.43267 9.54233 4.11092 9.29175 4.83275 9.12125C5.55458 8.95075 6.31867 8.8655 7.125 8.8655C7.56717 8.8655 7.99667 8.89367 8.4135 8.95C8.83017 9.0065 9.23658 9.086 9.63275 9.1885C9.28142 9.33717 8.956 9.513 8.6565 9.716C8.357 9.91917 8.07983 10.1581 7.825 10.4328C7.70583 10.4071 7.58917 10.3894 7.475 10.3798C7.36083 10.3701 7.24417 10.3652 7.125 10.3652C6.44033 10.3652 5.81408 10.4268 5.24625 10.55C4.67825 10.673 4.15833 10.8659 3.6865 11.1288C3.50583 11.2211 3.36575 11.333 3.26625 11.4645C3.16692 11.5958 3.09358 11.7615 3.04625 11.9615H6.6C6.47183 12.2013 6.36483 12.4446 6.279 12.6912C6.193 12.9381 6.125 13.1948 6.075 13.4615H1.5ZM7.1255 7.923C6.37517 7.923 5.73717 7.65942 5.2115 7.13225C4.68583 6.60492 4.423 5.96467 4.423 5.2115C4.423 4.45833 4.68567 3.81817 5.211 3.291C5.73633 2.76367 6.37417 2.5 7.1245 2.5C7.87483 2.5 8.51283 2.76367 9.0385 3.291C9.56417 3.81817 9.827 4.45833 9.827 5.2115C9.827 5.96467 9.56433 6.60492 9.039 7.13225C8.51383 7.65942 7.876 7.923 7.1255 7.923ZM7.1255 6.423C7.46617 6.423 7.75158 6.30717 7.98175 6.0755C8.21192 5.84367 8.327 5.5565 8.327 5.214C8.327 4.87133 8.21175 4.58333 7.98125 4.35C7.75075 4.11667 7.46517 4 7.1245 4C6.78383 4 6.49842 4.11592 6.26825 4.34775C6.03808 4.57942 5.923 4.86658 5.923 5.20925C5.923 5.55175 6.03825 5.83967 6.26875 6.073C6.49925 6.30633 6.78483 6.423 7.1255 6.423ZM12 16.5865C11.5205 16.5865 11.1137 16.4179 10.7797 16.0807C10.4458 15.7436 10.2788 15.3352 10.2788 14.8558V11.9135C10.2788 11.434 10.4458 11.0257 10.7797 10.6885C11.1137 10.3513 11.5205 10.1828 12 10.1828C12.4795 10.1828 12.8863 10.3513 13.2203 10.6885C13.5542 11.0257 13.7212 11.434 13.7212 11.9135V14.8558C13.7212 15.3352 13.5542 15.7436 13.2203 16.0807C12.8863 16.4179 12.4795 16.5865 12 16.5865ZM11.4038 21.5V19.498C10.2616 19.3532 9.30133 18.8413 8.523 17.9625C7.74483 17.0837 7.35575 16.0481 7.35575 14.8558H8.5385C8.5385 15.8224 8.87533 16.6458 9.549 17.326C10.2227 18.0062 11.0397 18.3462 12 18.3462C12.9603 18.3462 13.7773 18.0055 14.451 17.324C15.1247 16.6425 15.4615 15.8197 15.4615 14.8558H16.6538C16.6538 16.0481 16.2631 17.0837 15.4818 17.9625C14.7003 18.8413 13.7384 19.3532 12.5963 19.498V21.5H11.4038Z" fill="#4E657E"/>
</g>
</svg>
