<svg width="16" height="16" viewBox="0 0 16 16" fill="none" xmlns="http://www.w3.org/2000/svg">
<path d="M7.28862 13.6035C6.4608 13.9583 5.49408 13.6422 5.02796 12.8715C4.77468 12.4528 4.35705 12.1511 3.87979 12.0428C3.00448 11.8441 2.40568 11.0213 2.48638 10.1274C2.53036 9.64023 2.37124 9.15376 2.04629 8.78818C1.44959 8.1169 1.44959 7.10532 2.04629 6.43404C2.37124 6.06846 2.53036 5.58199 2.48638 5.09485C2.40568 4.20092 3.00448 3.37809 3.87979 3.17944C4.35705 3.07112 4.77468 2.76944 5.02796 2.35068C5.49408 1.58004 6.4608 1.26395 7.28862 1.61873C7.74289 1.81342 8.25711 1.81342 8.71138 1.61873C9.5392 1.26395 10.5059 1.58004 10.972 2.35068C11.2253 2.76944 11.643 3.07112 12.1202 3.17944C12.9955 3.37809 13.5943 4.20092 13.5136 5.09485C13.4696 5.58199 13.6288 6.06846 13.9537 6.43404C14.5504 7.10532 14.5504 8.1169 13.9537 8.78818C13.6288 9.15376 13.4696 9.64023 13.5136 10.1274C13.5943 11.0213 12.9955 11.8441 12.1202 12.0428C11.643 12.1511 11.2253 12.4528 10.972 12.8715C10.5059 13.6422 9.5392 13.9583 8.71138 13.6035C8.25711 13.4088 7.74289 13.4088 7.28862 13.6035ZM7.17361 9.94444L11.0301 6.10417L10.2037 5.27778L7.17361 8.29167L5.7963 6.93056L4.96991 7.75694L7.17361 9.94444Z" fill="#CCE2FF"/>
<path d="M11.0328 6.10373L7.17636 9.94401L4.97266 7.75651L5.79905 6.93012L7.17636 8.29123L10.2065 5.27734L11.0328 6.10373Z" fill="#0058CC"/>
</svg>
