<svg width="24" height="24" viewBox="0 0 24 24" fill="none" xmlns="http://www.w3.org/2000/svg">
<mask id="mask0_3285_22310" style="mask-type:alpha" maskUnits="userSpaceOnUse" x="0" y="0" width="24" height="24">
<rect width="24" height="24" fill="#D9D9D9"/>
</mask>
<g mask="url(#mask0_3285_22310)">
<path d="M12 21.5C11.6385 21.5 11.2941 21.4324 10.9668 21.2973C10.6392 21.1621 10.3491 20.9668 10.0963 20.7115C9.59358 20.2153 9.1625 19.8907 8.803 19.7375C8.44333 19.5843 7.90392 19.5077 7.18475 19.5077C6.43675 19.5077 5.801 19.246 5.2775 18.7225C4.754 18.199 4.49225 17.5632 4.49225 16.8152C4.49225 16.1026 4.41542 15.5646 4.26175 15.2013C4.10808 14.8379 3.78367 14.4054 3.2885 13.9038C3.03083 13.6461 2.835 13.3538 2.701 13.027C2.567 12.7002 2.5 12.3585 2.5 12.002C2.5 11.6455 2.567 11.3032 2.701 10.975C2.835 10.6468 3.03083 10.3539 3.2885 10.0962C3.78367 9.59808 4.10808 9.16867 4.26175 8.808C4.41542 8.44717 4.49225 7.90608 4.49225 7.18475C4.49225 6.43675 4.754 5.801 5.2775 5.2775C5.801 4.754 6.43675 4.49225 7.18475 4.49225C7.89742 4.49225 8.43542 4.41542 8.79875 4.26175C9.16208 4.10808 9.59458 3.78367 10.0963 3.2885C10.3496 3.03317 10.6402 2.83792 10.968 2.70275C11.2958 2.56758 11.6386 2.5 11.9963 2.5C12.3539 2.5 12.6968 2.567 13.025 2.701C13.3532 2.835 13.6461 3.03083 13.9038 3.2885C14.4019 3.78367 14.8313 4.10808 15.192 4.26175C15.5528 4.41542 16.0939 4.49225 16.8152 4.49225C17.5632 4.49225 18.199 4.754 18.7225 5.2775C19.246 5.801 19.5077 6.43675 19.5077 7.18475C19.5077 7.89742 19.5846 8.43542 19.7383 8.79875C19.8919 9.16208 20.2163 9.59458 20.7115 10.0962C20.9692 10.3539 21.165 10.6462 21.299 10.973C21.433 11.2998 21.5 11.6415 21.5 11.998C21.5 12.3545 21.433 12.6968 21.299 13.025C21.165 13.3532 20.9692 13.6461 20.7115 13.9038C20.2153 14.4064 19.8907 14.8375 19.7375 15.197C19.5843 15.5567 19.5077 16.0961 19.5077 16.8152C19.5077 17.5632 19.246 18.199 18.7225 18.7225C18.199 19.246 17.5632 19.5077 16.8152 19.5077C16.1026 19.5077 15.5646 19.5846 15.2013 19.7383C14.8379 19.8919 14.4054 20.2163 13.9038 20.7115C13.6509 20.9668 13.3608 21.1621 13.0333 21.2973C12.7059 21.4324 12.3615 21.5 12 21.5ZM12.0013 20C12.1594 20 12.3138 19.9677 12.4645 19.903C12.6152 19.8382 12.7418 19.7545 12.8443 19.652C13.4763 19.0135 14.0735 18.5798 14.636 18.351C15.1983 18.1222 15.9247 18.0078 16.8152 18.0078C17.1531 18.0078 17.4363 17.8935 17.665 17.665C17.8935 17.4363 18.0078 17.1531 18.0078 16.8152C18.0078 15.9192 18.1222 15.193 18.351 14.6365C18.5798 14.0802 19.0103 13.4827 19.6423 12.8442C19.8808 12.6058 20 12.3243 20 12C20 11.6757 19.884 11.3974 19.652 11.1652C19.0135 10.5269 18.5798 9.9265 18.351 9.364C18.1222 8.80167 18.0078 8.07525 18.0078 7.18475C18.0078 6.84692 17.8935 6.56367 17.665 6.335C17.4363 6.1065 17.1531 5.99225 16.8152 5.99225C15.9099 5.99225 15.1802 5.87942 14.626 5.65375C14.0718 5.42792 13.4748 4.99592 12.8348 4.35775C12.7321 4.25508 12.6054 4.16983 12.4548 4.102C12.3041 4.034 12.1525 4 12 4C11.8475 4 11.6943 4.03475 11.5405 4.10425C11.3865 4.17392 11.2583 4.25842 11.1558 4.35775C10.5238 4.98975 9.9265 5.42017 9.364 5.649C8.80167 5.87783 8.07525 5.99225 7.18475 5.99225C6.84692 5.99225 6.56367 6.1065 6.335 6.335C6.1065 6.56367 5.99225 6.84692 5.99225 7.18475C5.99225 8.08725 5.87783 8.81667 5.649 9.373C5.42017 9.9295 4.9865 10.5269 4.348 11.1652C4.116 11.3974 4 11.6757 4 12C4 12.3243 4.116 12.6058 4.348 12.8442C4.9865 13.4827 5.42017 14.0812 5.649 14.6395C5.87783 15.1978 5.99225 15.9231 5.99225 16.8152C5.99225 17.1531 6.1065 17.4363 6.335 17.665C6.56367 17.8935 6.84692 18.0078 7.18475 18.0078C8.08792 18.0078 8.81592 18.1222 9.36875 18.351C9.92158 18.5798 10.5204 19.0135 11.1652 19.652C11.2679 19.7545 11.3933 19.8382 11.5415 19.903C11.6898 19.9677 11.8431 20 12.0013 20ZM14.4345 15.6635C14.7795 15.6635 15.0706 15.5449 15.3077 15.3077C15.5449 15.0706 15.6635 14.7795 15.6635 14.4345C15.6635 14.0893 15.5449 13.796 15.3077 13.5545C15.0706 13.313 14.7795 13.1923 14.4345 13.1923C14.0893 13.1923 13.796 13.313 13.5545 13.5545C13.313 13.796 13.1923 14.0893 13.1923 14.4345C13.1923 14.7795 13.313 15.0706 13.5545 15.3077C13.796 15.5449 14.0893 15.6635 14.4345 15.6635ZM9.51725 15.527L15.527 9.527L14.473 8.473L8.473 14.4827L9.51725 15.527ZM10.4455 10.4455C10.687 10.204 10.8077 9.91067 10.8077 9.5655C10.8077 9.2205 10.687 8.92942 10.4455 8.69225C10.204 8.45508 9.91067 8.3365 9.5655 8.3365C9.2205 8.3365 8.92942 8.45508 8.69225 8.69225C8.45508 8.92942 8.3365 9.2205 8.3365 9.5655C8.3365 9.91067 8.45508 10.204 8.69225 10.4455C8.92942 10.687 9.2205 10.8077 9.5655 10.8077C9.91067 10.8077 10.204 10.687 10.4455 10.4455Z" fill="#4E657E"/>
</g>
</svg>
