<svg width="16" height="16" viewBox="0 0 16 16" fill="none" xmlns="http://www.w3.org/2000/svg">
<path d="M11.0625 5.42857V3.28571H4.9375V5.42857H3.625V2H12.375V5.42857H11.0625ZM12.1524 8.42857C12.3373 8.42857 12.4935 8.36732 12.6211 8.24482C12.7487 8.12232 12.8125 7.97054 12.8125 7.78946C12.8125 7.60839 12.75 7.45536 12.6249 7.33036C12.4999 7.20536 12.3449 7.14286 12.1601 7.14286C11.9752 7.14286 11.819 7.20411 11.6914 7.32661C11.5638 7.44911 11.5 7.60089 11.5 7.78196C11.5 7.96304 11.5625 8.11607 11.6876 8.24107C11.8126 8.36607 11.9676 8.42857 12.1524 8.42857ZM11.0625 12.7143V10.1429H4.9375V12.7143H11.0625ZM12.375 14H3.625V11.4286H1V7.14286C1 6.66667 1.17014 6.2619 1.51042 5.92857C1.85069 5.59524 2.26389 5.42857 2.75 5.42857H13.25C13.7361 5.42857 14.1493 5.59524 14.4896 5.92857C14.8299 6.2619 15 6.66667 15 7.14286V11.4286H12.375V14ZM13.7057 10.1429V7.39875C13.7057 7.20435 13.6328 7.04167 13.487 6.91071C13.3411 6.77976 13.171 6.71429 12.9766 6.71429H3.00521C2.80894 6.71429 2.64445 6.78 2.51174 6.91143C2.37891 7.04286 2.3125 7.20571 2.3125 7.4V10.1429H3.625V8.85714H12.375V10.1429H13.7057Z" fill="#8198B1"/>
</svg>
