<svg width="0" height="0" class="hidden">
  <symbol fill="none" xmlns="http://www.w3.org/2000/svg" viewBox="0 0 24 24" id="header-favorite">
    <path d="M11.9867 21.0485L10.4117 19.6268C8.70735 18.1152 7.30173 16.8161 6.19485 15.7295C5.08797 14.6429 4.21967 13.6753 3.58995 12.8268C2.96025 11.9782 2.52221 11.1982 2.27582 10.4866C2.02944 9.77496 1.90625 9.03727 1.90625 8.27351C1.90625 6.64886 2.45933 5.2811 3.5655 4.17023C4.67167 3.05935 6.03708 2.50391 7.66173 2.50391C8.46898 2.50391 9.25122 2.66006 10.0084 2.97238C10.7657 3.2847 11.4251 3.73397 11.9867 4.32021C12.5483 3.73397 13.2077 3.2847 13.965 2.97238C14.7222 2.66006 15.5045 2.50391 16.3117 2.50391C17.9364 2.50391 19.3065 3.05935 20.4221 4.17023C21.5377 5.2811 22.0955 6.64886 22.0955 8.27351C22.0955 9.02786 21.9788 9.7525 21.7455 10.4474C21.5121 11.1423 21.0782 11.9076 20.4438 12.7431C19.8094 13.5786 18.9322 14.5503 17.8123 15.6583C16.6924 16.7663 15.2588 18.1058 13.5117 19.6768L11.9867 21.0485Z" fill="currentColor"></path>
  </symbol>
  <symbol fill="none" xmlns="http://www.w3.org/2000/svg" viewBox="0 0 24 24" id="header-message">
    <path d="M4.20625 19.1988C3.72292 19.1988 3.30208 19.0197 2.94375 18.6613C2.58542 18.303 2.40625 17.8822 2.40625 17.3988V6.59883C2.40625 6.11549 2.58542 5.69466 2.94375 5.33633C3.30208 4.97799 3.72292 4.79883 4.20625 4.79883H19.8063C20.3063 4.79883 20.7313 4.97799 21.0813 5.33633C21.4313 5.69466 21.6063 6.11549 21.6063 6.59883V17.3988C21.6063 17.8822 21.4313 18.303 21.0813 18.6613C20.7313 19.0197 20.3063 19.1988 19.8063 19.1988H4.20625ZM12.0063 13.1988L19.8063 8.72383V6.59883L12.0063 11.0738L4.20625 6.59883V8.72383L12.0063 13.1988Z" fill="currentColor"></path>
  </symbol>
  <symbol fill="none" xmlns="http://www.w3.org/2000/svg" viewBox="0 0 24 24" id="header-search">
    <path d="M19.1266 20.3996L13.1516 14.4246C12.6516 14.7913 12.1033 15.0788 11.5068 15.2871C10.9103 15.4954 10.2755 15.5996 9.60231 15.5996C7.93515 15.5996 6.51823 15.0163 5.35156 13.8496C4.1849 12.6829 3.60156 11.2663 3.60156 9.59961C3.60156 7.93294 4.1849 6.51628 5.35156 5.34961C6.51823 4.18294 7.9349 3.59961 9.60156 3.59961C11.2682 3.59961 12.6849 4.18294 13.8516 5.34961C15.0182 6.51628 15.6016 7.93319 15.6016 9.60036C15.6016 10.2735 15.4974 10.9084 15.2891 11.5049C15.0807 12.1014 14.7932 12.6496 14.4266 13.1496L20.4016 19.1246L19.1266 20.3996ZM9.60156 13.7996C10.7682 13.7996 11.7599 13.3913 12.5766 12.5746C13.3932 11.7579 13.8016 10.7663 13.8016 9.59961C13.8016 8.43294 13.3932 7.44128 12.5766 6.62461C11.7599 5.80794 10.7682 5.39961 9.60156 5.39961C8.4349 5.39961 7.44323 5.80794 6.62656 6.62461C5.8099 7.44128 5.40156 8.43294 5.40156 9.59961C5.40156 10.7663 5.8099 11.7579 6.62656 12.5746C7.44323 13.3913 8.4349 13.7996 9.60156 13.7996Z" fill="currentColor"></path>
  </symbol>
  <symbol fill="none" xmlns="http://www.w3.org/2000/svg" viewBox="0 0 24 24" id="header-user">
    <path d="M5.85 17.1C6.7 16.45 7.65 15.9375 8.7 15.5625C9.75 15.1875 10.85 15 12 15C13.15 15 14.25 15.1875 15.3 15.5625C16.35 15.9375 17.3 16.45 18.15 17.1C18.7333 16.4167 19.1875 15.6417 19.5125 14.775C19.8375 13.9083 20 12.9833 20 12C20 9.78333 19.2208 7.89583 17.6625 6.3375C16.1042 4.77917 14.2167 4 12 4C9.78333 4 7.89583 4.77917 6.3375 6.3375C4.77917 7.89583 4 9.78333 4 12C4 12.9833 4.1625 13.9083 4.4875 14.775C4.8125 15.6417 5.26667 16.4167 5.85 17.1ZM9.5125 11.9875C8.8375 11.3125 8.5 10.4833 8.5 9.5C8.5 8.51667 8.8375 7.6875 9.5125 7.0125C10.1875 6.3375 11.0167 6 12 6C12.9833 6 13.8125 6.3375 14.4875 7.0125C15.1625 7.6875 15.5 8.51667 15.5 9.5C15.5 10.4833 15.1625 11.3125 14.4875 11.9875C13.8125 12.6625 12.9833 13 12 13C11.0167 13 10.1875 12.6625 9.5125 11.9875ZM12 22C10.6167 22 9.31667 21.7375 8.1 21.2125C6.88333 20.6875 5.825 19.975 4.925 19.075C4.025 18.175 3.3125 17.1167 2.7875 15.9C2.2625 14.6833 2 13.3833 2 12C2 10.6167 2.2625 9.31667 2.7875 8.1C3.3125 6.88333 4.025 5.825 4.925 4.925C5.825 4.025 6.88333 3.3125 8.1 2.7875C9.31667 2.2625 10.6167 2 12 2C13.3833 2 14.6833 2.2625 15.9 2.7875C17.1167 3.3125 18.175 4.025 19.075 4.925C19.975 5.825 20.6875 6.88333 21.2125 8.1C21.7375 9.31667 22 10.6167 22 12C22 13.3833 21.7375 14.6833 21.2125 15.9C20.6875 17.1167 19.975 18.175 19.075 19.075C18.175 19.975 17.1167 20.6875 15.9 21.2125C14.6833 21.7375 13.3833 22 12 22ZM14.5 19.6125C15.2833 19.3542 16 18.9833 16.65 18.5C16 18.0167 15.2833 17.6458 14.5 17.3875C13.7167 17.1292 12.8833 17 12 17C11.1167 17 10.2833 17.1292 9.5 17.3875C8.71667 17.6458 8 18.0167 7.35 18.5C8 18.9833 8.71667 19.3542 9.5 19.6125C10.2833 19.8708 11.1167 20 12 20C12.8833 20 13.7167 19.8708 14.5 19.6125ZM13.075 10.575C13.3583 10.2917 13.5 9.93333 13.5 9.5C13.5 9.06667 13.3583 8.70833 13.075 8.425C12.7917 8.14167 12.4333 8 12 8C11.5667 8 11.2083 8.14167 10.925 8.425C10.6417 8.70833 10.5 9.06667 10.5 9.5C10.5 9.93333 10.6417 10.2917 10.925 10.575C11.2083 10.8583 11.5667 11 12 11C12.4333 11 12.7917 10.8583 13.075 10.575Z" fill="currentColor"></path>
  </symbol>
</svg>