<svg width="0" height="0" class="hidden">
  <symbol fill="none" xmlns="http://www.w3.org/2000/svg" viewBox="0 0 24 24" id="chevronRight">
    <path d="M16 12L9.68932 18L8 16.3939L12.6214 12L8 7.60615L9.68932 6L16 12Z" fill="#3B4C5E"></path>
  </symbol>
  <symbol fill="none" xmlns="http://www.w3.org/2000/svg" viewBox="0 0 24 24" id="chevronLeft">
    <path d="M8 12L14.3107 6L16 7.60615L11.3786 12L16 16.3939L14.3107 18L8 12Z" fill="#3B4C5E"></path>
  </symbol>
  <symbol fill="none" xmlns="http://www.w3.org/2000/svg" viewBox="0 0 24 24" id="close">
    <mask id="mask0_3116_12488" maskUnits="userSpaceOnUse" x="0" y="0" width="24" height="24">
      <rect width="24" height="24" fill="#D9D9D9"></rect>
    </mask>
    <g mask="url(#mask0_3116_12488)">
      <path d="M7.275 18L6 16.725L10.725 12L6 7.275L7.275 6L12 10.725L16.725 6L18 7.275L13.275 12L18 16.725L16.725 18L12 13.275L7.275 18Z" fill="#3B4C5E"></path>
    </g>
  </symbol>
  <symbol fill="none" xmlns="http://www.w3.org/2000/svg" viewBox="0 0 24 24" id="user">
    <mask id="mask0_2801_21820" maskUnits="userSpaceOnUse" x="0" y="0" width="24" height="24">
      <rect width="24" height="24" fill="#D9D9D9"></rect>
    </mask>
    <g mask="url(#mask0_2801_21820)">
      <path d="M5.85 17.1C6.7 16.45 7.65 15.9375 8.7 15.5625C9.75 15.1875 10.85 15 12 15C13.15 15 14.25 15.1875 15.3 15.5625C16.35 15.9375 17.3 16.45 18.15 17.1C18.7333 16.4167 19.1875 15.6417 19.5125 14.775C19.8375 13.9083 20 12.9833 20 12C20 9.78333 19.2208 7.89583 17.6625 6.3375C16.1042 4.77917 14.2167 4 12 4C9.78333 4 7.89583 4.77917 6.3375 6.3375C4.77917 7.89583 4 9.78333 4 12C4 12.9833 4.1625 13.9083 4.4875 14.775C4.8125 15.6417 5.26667 16.4167 5.85 17.1ZM9.5125 11.9875C8.8375 11.3125 8.5 10.4833 8.5 9.5C8.5 8.51667 8.8375 7.6875 9.5125 7.0125C10.1875 6.3375 11.0167 6 12 6C12.9833 6 13.8125 6.3375 14.4875 7.0125C15.1625 7.6875 15.5 8.51667 15.5 9.5C15.5 10.4833 15.1625 11.3125 14.4875 11.9875C13.8125 12.6625 12.9833 13 12 13C11.0167 13 10.1875 12.6625 9.5125 11.9875ZM12 22C10.6167 22 9.31667 21.7375 8.1 21.2125C6.88333 20.6875 5.825 19.975 4.925 19.075C4.025 18.175 3.3125 17.1167 2.7875 15.9C2.2625 14.6833 2 13.3833 2 12C2 10.6167 2.2625 9.31667 2.7875 8.1C3.3125 6.88333 4.025 5.825 4.925 4.925C5.825 4.025 6.88333 3.3125 8.1 2.7875C9.31667 2.2625 10.6167 2 12 2C13.3833 2 14.6833 2.2625 15.9 2.7875C17.1167 3.3125 18.175 4.025 19.075 4.925C19.975 5.825 20.6875 6.88333 21.2125 8.1C21.7375 9.31667 22 10.6167 22 12C22 13.3833 21.7375 14.6833 21.2125 15.9C20.6875 17.1167 19.975 18.175 19.075 19.075C18.175 19.975 17.1167 20.6875 15.9 21.2125C14.6833 21.7375 13.3833 22 12 22ZM14.5 19.6125C15.2833 19.3542 16 18.9833 16.65 18.5C16 18.0167 15.2833 17.6458 14.5 17.3875C13.7167 17.1292 12.8833 17 12 17C11.1167 17 10.2833 17.1292 9.5 17.3875C8.71667 17.6458 8 18.0167 7.35 18.5C8 18.9833 8.71667 19.3542 9.5 19.6125C10.2833 19.8708 11.1167 20 12 20C12.8833 20 13.7167 19.8708 14.5 19.6125ZM13.075 10.575C13.3583 10.2917 13.5 9.93333 13.5 9.5C13.5 9.06667 13.3583 8.70833 13.075 8.425C12.7917 8.14167 12.4333 8 12 8C11.5667 8 11.2083 8.14167 10.925 8.425C10.6417 8.70833 10.5 9.06667 10.5 9.5C10.5 9.93333 10.6417 10.2917 10.925 10.575C11.2083 10.8583 11.5667 11 12 11C12.4333 11 12.7917 10.8583 13.075 10.575Z" fill="#3B4C5E"></path>
    </g>
  </symbol>
  <symbol fill="none" xmlns="http://www.w3.org/2000/svg" viewBox="0 0 24 24" id="menu">
    <mask id="mask0_2801_21795" maskUnits="userSpaceOnUse" x="0" y="0" width="24" height="24">
      <rect width="24" height="24" fill="#D9D9D9"></rect>
    </mask>
    <g mask="url(#mask0_2801_21795)">
      <path d="M3 7V5H21V7H3ZM3 19V17H21V19H3ZM3 13V11H21V13H3Z" fill="#3B4C5E"></path>
    </g>
  </symbol>
  <symbol fill="none" xmlns="http://www.w3.org/2000/svg" viewBox="0 0 24 24" id="search">
    <mask id="mask0_2612_5911" maskUnits="userSpaceOnUse" x="0" y="0" width="24" height="24">
      <rect width="24" height="24" fill="#D9D9D9"></rect>
    </mask>
    <g mask="url(#mask0_2612_5911)">
      <path d="M19.1246 20.4L13.1496 14.425C12.6496 14.7917 12.1014 15.0792 11.5049 15.2875C10.9084 15.4959 10.2735 15.6 9.60036 15.6C7.93319 15.6 6.51628 15.0167 5.34961 13.85C4.18294 12.6834 3.59961 11.2667 3.59961 9.60004C3.59961 7.93337 4.18294 6.5167 5.34961 5.35004C6.51628 4.18337 7.93294 3.60004 9.59961 3.60004C11.2663 3.60004 12.6829 4.18337 13.8496 5.35004C15.0163 6.5167 15.5996 7.93362 15.5996 9.60079C15.5996 10.274 15.4954 10.9088 15.2871 11.5053C15.0788 12.1018 14.7913 12.65 14.4246 13.15L20.3996 19.125L19.1246 20.4ZM9.59961 13.8C10.7663 13.8 11.7579 13.3917 12.5746 12.575C13.3913 11.7584 13.7996 10.7667 13.7996 9.60004C13.7996 8.43337 13.3913 7.4417 12.5746 6.62504C11.7579 5.80837 10.7663 5.40004 9.59961 5.40004C8.43294 5.40004 7.44128 5.80837 6.62461 6.62504C5.80794 7.4417 5.39961 8.43337 5.39961 9.60004C5.39961 10.7667 5.80794 11.7584 6.62461 12.575C7.44128 13.3917 8.43294 13.8 9.59961 13.8Z" fill="#3B4C5E"></path>
    </g>
  </symbol>
</svg>